<?xml version="1.0" encoding="UTF-8"?>
<svg id="Layer_2" data-name="Layer 2" xmlns="http://www.w3.org/2000/svg" viewBox="0 0 391.32 289.27">
  <defs>
    <style>
      .cls-1 {
        fill: #fff;
      }
    </style>
  </defs>
  <g id="Layer_1-2" data-name="Layer 1">
    <g>
      <path class="cls-1" d="M0,0V196.5c30.13,29.91,60.48,60.03,92.05,91.37V104.95c-1.15-1.21-2.3-2.41-3.47-3.6C58.39,69.9,30.84,32.12,0,0"/>
      <path class="cls-1" d="M391.32,1.4V197.91c-30.13,29.91-60.48,60.03-92.05,91.36V106.35c1.15-1.21,2.3-2.41,3.47-3.6,30.19-31.44,57.73-69.22,88.58-101.35"/>
      <path class="cls-1" d="M154.24,99.56h-56.79L196.36,.65l100.13,100.13h-47.27c-2.86-8.54-5.68-16.92-8.48-25.3-.16,0-.32,0-.48,.03-.39,1.22-.74,2.44-1.12,3.63-.64,1.89-1.32,3.72-1.93,5.62-.8,2.34-1.51,4.69-2.31,6.97-.83,2.47-1.67,4.94-2.54,7.45-.42,1.28-.58,1.54-1.99,1.54h-20.74c-1.25,0-1.57-.32-1.8-1.51-.51-2.92-1.06-5.78-1.67-8.64-.77-3.98-1.7-7.93-2.5-11.91-.77-4.01-1.54-8.06-2.35-12.1-.22-1.22-.48-2.47-.77-3.69-.64-3.11-1.28-6.23-1.89-9.34-.55-2.63-1.06-5.3-1.61-7.96-.61-3.24-1.32-6.52-1.99-9.79-.29-1.22-.54-2.44-.83-3.66h-.29c-.1,.35-.16,.74-.19,1.12-.23,2.73-.36,5.49-.55,8.22-.45,7.58-.93,15.16-1.35,22.7-.48,7.51-.93,15.03-1.35,22.54-.58,9.12-1.12,18.27-1.7,27.39,0,.42-.13,.84-.16,1.22h-.32c-2.95-11.11-5.94-22.19-8.96-33.46-.42,.29-.84,.42-.96,.71-1.44,3.02-2.89,6.04-4.4,9.02-.45,1.03-1.03,2.02-1.54,3.02h-.35c-2.7-7.32-5.33-14.71-8.03-22.09-.16-.03-.29-.03-.41-.06-3.31,8.93-6.1,18.01-9.41,27.13"/>
      <path class="cls-1" d="M299.27,106.35l-102.91,102.91L92.05,104.96l.04-.04h67.65c1.32-3.95,2.66-7.74,3.98-11.59,.1,0,.26,0,.35-.03,.36,.87,.71,1.77,1.06,2.7,.87,2.18,1.67,4.43,2.5,6.61,1.03,2.89,1.96,5.71,3.02,8.51,.1,.32,.51,.48,.9,.8,1.35-2.83,2.57-5.43,3.88-7.96,.48-.93,.61-2.05,1.83-2.6,5.07,19.01,10.18,37.98,15.29,56.93h.29c.1-.39,.29-.71,.35-1.09,.13-1.28,.26-2.6,.32-3.98,.36-5.97,.68-11.94,1.03-17.92,.58-9.54,1.22-19.04,1.83-28.54,.39-5.97,.64-11.94,.96-17.98,.03-.55,.13-1.06,.29-1.64,.13,0,.32-.03,.48-.03,.55,2.09,.96,4.21,1.32,6.36,.35,2.15,.83,4.27,1.35,6.39,.45,2.18,.9,4.3,1.38,6.45h35.06c.99-2.95,2.05-5.87,3.05-8.83,.13,0,.26-.03,.35-.03,1.03,2.95,2.09,5.88,3.08,8.93,3.89-.05,33.47,0,55.57-.01"/>
    </g>
  </g>
</svg>