<?xml version="1.0" encoding="UTF-8"?>
<svg id="Layer_2" data-name="Layer 2" xmlns="http://www.w3.org/2000/svg" viewBox="0 0 978.21 179.13">
  <defs>
    <style>
      .cls-1 {
        fill: #193252;
      }

      .cls-2 {
        fill: #00b1c2;
      }
    </style>
  </defs>
  <g id="Layer_1-2" data-name="Layer 1">
    <g>
      <g>
        <path class="cls-1" d="M686.44,64.59v17.26h-.39c-15.44-.86-16.2-13.49-16.08-17.26h16.47Z"/>
        <g>
          <path class="cls-1" d="M484.89,104.36c0-8.1-1.73-15.29-5.18-21.54-3.45-6.25-8.31-11.08-14.56-14.48-6.25-3.4-13.33-5.11-21.24-5.11s-15.44,1.76-21.75,5.25c-6.3,3.5-11.22,8.51-14.72,15.02-3.49,6.5-5.25,14.05-5.25,22.66s1.78,16.01,5.34,22.51c3.54,6.5,8.51,11.53,14.85,15.09,6.36,3.54,13.54,5.32,21.54,5.32,9.91,0,18.26-2.57,25.08-7.73,6.8-5.14,11.39-11.73,13.81-19.74h-22.66c-3.31,6.71-8.86,10.06-16.66,10.06-5.41,0-9.97-1.69-13.67-5.09-3.7-3.4-5.79-8.12-6.3-14.11h60.79c.41-2.41,.6-5.11,.6-8.12Zm-61.23-6.01c.79-5.6,2.98-9.97,6.53-13.12,3.54-3.15,7.92-4.74,13.12-4.74,5.51,0,10.16,1.64,13.97,4.88,3.8,3.26,5.76,7.59,5.85,12.98h-39.46Z"/>
          <path class="cls-1" d="M581.54,29.71l-21.24,13.37-.22,33.07c-2.91-3.91-6.82-7.03-11.71-9.37-4.91-2.36-10.06-3.54-15.46-3.54-7.1,0-13.56,1.76-19.35,5.25-5.81,3.5-10.39,8.51-13.74,15.02-3.35,6.5-5.04,13.95-5.04,22.35s1.69,16.04,5.04,22.59c3.35,6.55,7.92,11.64,13.74,15.23,5.79,3.61,12.2,5.41,19.21,5.41,6.2,0,11.64-1.25,16.36-3.75,4.7-2.5,8.35-5.79,10.95-9.91v12.31h21.31l.15-118.02Zm-24.31,89.58c-2.01,3.66-4.7,6.46-8.1,8.42-3.42,1.94-7.06,2.92-10.97,2.92s-7.38-1-10.72-3.01c-3.35-1.99-6.06-4.88-8.1-8.63-2.06-3.75-3.08-8.12-3.08-13.14s1.02-9.32,3.08-12.98c2.04-3.65,4.72-6.43,8.03-8.33,3.29-1.9,6.9-2.85,10.8-2.85s7.55,.99,10.97,2.94c3.4,1.94,6.09,4.74,8.1,8.4,1.99,3.65,2.99,8.03,2.99,13.14s-1,9.47-2.99,13.12Z"/>
          <path class="cls-1" d="M603.38,51.16c-2.45-2.35-3.68-5.28-3.68-8.78s1.22-6.43,3.68-8.78c2.45-2.35,5.53-3.53,9.23-3.53s6.77,1.18,9.23,3.53c2.45,2.35,3.68,5.28,3.68,8.78s-1.23,6.43-3.68,8.78c-2.45,2.35-5.53,3.53-9.23,3.53s-6.78-1.18-9.23-3.53Z"/>
          <rect class="cls-1" x="601.96" y="64.59" width="21.01" height="83.15"/>
          <path class="cls-1" d="M686.76,130.03v17.7h-13.21c-17.72,0-26.57-8.59-26.57-25.82v-40.06h-9.9v-17.26h9.9l-.05-21.26,21.13-13.3,.09,34.55h.02v17.26h-.02v40.22c0,2.8,.67,4.83,2.03,6.08,1.36,1.25,3.63,1.88,6.83,1.88h9.76Z"/>
          <path class="cls-1" d="M703.34,51.16c-2.45-2.35-3.68-5.28-3.68-8.78s1.23-6.43,3.68-8.78c2.45-2.35,5.53-3.53,9.23-3.53s6.78,1.18,9.23,3.53c2.45,2.35,3.68,5.28,3.68,8.78s-1.23,6.43-3.68,8.78c-2.45,2.35-5.53,3.53-9.23,3.53s-6.78-1.18-9.23-3.53Z"/>
          <rect class="cls-1" x="701.91" y="64.59" width="21.01" height="83.15"/>
          <path class="cls-1" d="M871.58,72.76c-6.25-6.25-14.49-9.37-24.69-9.37-6.01,0-11.59,1.44-16.73,4.35-5.16,2.91-9.09,6.74-11.78,11.55-2.8-5.11-6.76-9.03-11.87-11.78-5.09-2.75-10.9-4.12-17.4-4.12-5.11,0-9.79,1-14.04,2.99-4.26,2.01-7.73,4.75-10.43,8.26v-10.06h-21.01v83.14h21.01v-45.93c0-6.5,1.67-11.46,5.02-14.93,3.35-3.45,7.92-5.18,13.74-5.18s10.21,1.73,13.51,5.18c3.31,3.47,4.95,8.44,4.95,14.93v45.93h21.01v-45.93c0-6.5,1.67-11.46,5.04-14.93,3.35-3.45,7.87-5.18,13.58-5.18s10.21,1.73,13.51,5.18c3.31,3.47,4.95,8.44,4.95,14.93v45.93h21.03v-48.78c0-11.2-3.13-19.93-9.39-26.19Z"/>
          <path class="cls-1" d="M978.21,104.36c0-8.1-1.73-15.29-5.18-21.54-3.45-6.25-8.31-11.08-14.56-14.48-6.25-3.4-13.33-5.11-21.24-5.11s-15.44,1.76-21.77,5.25c-6.29,3.5-11.2,8.51-14.7,15.02-3.5,6.5-5.25,14.05-5.25,22.66s1.78,16.01,5.34,22.51c3.54,6.5,8.49,11.53,14.85,15.09,6.36,3.54,13.54,5.32,21.54,5.32,9.91,0,18.26-2.57,25.08-7.73,6.8-5.14,11.39-11.73,13.81-19.74h-22.66c-3.31,6.71-8.86,10.06-16.66,10.06-5.41,0-9.97-1.69-13.67-5.09-3.7-3.4-5.79-8.12-6.3-14.11h60.79c.39-2.41,.6-5.11,.6-8.12Zm-61.23-6.01c.79-5.6,2.98-9.97,6.52-13.12,3.56-3.15,7.94-4.74,13.14-4.74,5.51,0,10.16,1.64,13.97,4.88,3.8,3.26,5.74,7.59,5.85,12.98h-39.46Z"/>
          <path class="cls-1" d="M391.03,30.04v119.05h-21.87V71.65l-29.21,77.44h-16.56l-29.37-77.44v77.44h-21.87V30.04h24.84l34.68,88.52,34.68-88.52h24.68Z"/>
        </g>
      </g>
      <g>
        <path class="cls-2" d="M0,0V121.68c18.66,18.52,37.45,37.17,57,56.58V64.99c-.71-.75-1.42-1.49-2.15-2.23C36.16,43.29,19.1,19.89,0,0"/>
        <path class="cls-2" d="M242.32,.87V122.55c-18.66,18.52-37.45,37.17-57,56.58V65.86c.71-.75,1.42-1.49,2.15-2.23,18.69-19.47,35.75-42.86,54.85-62.76"/>
        <path class="cls-2" d="M95.51,61.65H60.35L121.59,.4l62,62h-29.27c-1.77-5.29-3.52-10.48-5.25-15.67-.1,0-.2,0-.3,.02-.24,.76-.46,1.51-.7,2.25-.4,1.17-.82,2.31-1.19,3.48-.5,1.45-.93,2.9-1.43,4.31-.52,1.53-1.03,3.06-1.57,4.61-.26,.79-.36,.95-1.23,.95h-12.84c-.78,0-.98-.2-1.11-.94-.32-1.81-.66-3.58-1.03-5.35-.48-2.46-1.05-4.91-1.55-7.38-.48-2.49-.95-4.99-1.45-7.5-.14-.76-.3-1.53-.48-2.29-.4-1.93-.8-3.86-1.17-5.79-.34-1.63-.66-3.28-.99-4.93-.38-2.01-.82-4.04-1.23-6.06-.18-.76-.34-1.51-.52-2.27h-.18c-.06,.22-.1,.46-.12,.7-.14,1.69-.22,3.4-.34,5.09-.28,4.69-.58,9.39-.83,14.06-.3,4.65-.58,9.31-.84,13.96-.36,5.65-.7,11.31-1.05,16.96,0,.26-.08,.52-.1,.76h-.2c-1.83-6.88-3.68-13.74-5.55-20.72-.26,.18-.52,.26-.6,.44-.89,1.87-1.79,3.74-2.72,5.59-.28,.64-.64,1.25-.95,1.87h-.22c-1.67-4.53-3.3-9.11-4.97-13.68-.1-.02-.18-.02-.26-.04-2.05,5.53-3.78,11.15-5.83,16.8"/>
        <path class="cls-2" d="M185.32,65.86l-63.73,63.73L57,64.99l.02-.02h41.89c.82-2.45,1.65-4.79,2.46-7.18,.06,0,.16,0,.22-.02,.22,.54,.44,1.09,.66,1.67,.54,1.35,1.03,2.74,1.55,4.1,.64,1.79,1.21,3.54,1.87,5.27,.06,.2,.32,.3,.56,.5,.83-1.75,1.59-3.36,2.41-4.93,.3-.58,.38-1.27,1.13-1.61,3.14,11.77,6.3,23.52,9.46,35.25h.18c.06-.24,.18-.44,.22-.68,.08-.79,.16-1.61,.2-2.46,.22-3.7,.42-7.4,.64-11.09,.36-5.91,.76-11.79,1.13-17.68,.24-3.7,.4-7.4,.6-11.13,.02-.34,.08-.66,.18-1.02,.08,0,.2-.02,.3-.02,.34,1.29,.6,2.61,.82,3.94,.22,1.33,.52,2.64,.83,3.96,.28,1.35,.56,2.67,.85,4h21.71c.62-1.83,1.27-3.64,1.89-5.47,.08,0,.16-.02,.22-.02,.64,1.83,1.29,3.64,1.91,5.53,2.41-.03,20.73,0,34.41,0"/>
      </g>
    </g>
  </g>
</svg>